<svg xmlns="http://www.w3.org/2000/svg" viewBox="0 0 164.65 164.65"><defs><style>.cls-1{fill:#fff;}</style></defs><title>but_play</title><g id="Layer_2" data-name="Layer 2"><g id="Layer_1-2" data-name="Layer 1"><g id="_45Rnl9" data-name="45Rnl9"><path class="cls-1" d="M124.36,82.31,56.69,122.13V42.52Z"/><path class="cls-1" d="M82.31,164.65h0A82.31,82.31,0,0,1,0,82.15,82.26,82.26,0,0,1,82.45,0h.15a82.3,82.3,0,0,1,82,82.73A82.42,82.42,0,0,1,82.31,164.65ZM82.45,4.47a77.79,77.79,0,0,0-78,77.68h0a77.84,77.84,0,0,0,77.81,78h0A77.86,77.86,0,0,0,137.48,27.36,77.11,77.11,0,0,0,82.6,4.47Z"/></g></g></g></svg>