<svg xmlns="http://www.w3.org/2000/svg" viewBox="0 0 39.39 73.72"><defs><style>.cls-1{fill:#fff;}</style></defs><title>but_back</title><g id="Layer_2" data-name="Layer 2"><g id="Layer_1-2" data-name="Layer 1"><path class="cls-1" d="M36.67,0c-1-.07-1.61.62-2.23,1.24Q17.83,17.84,1.22,34.42C-.34,36-.45,37.33,1.16,38.93Q18,55.68,34.83,72.49c1.2,1.2,2.51,1.81,3.82.45,1.47-1.52.49-2.8-.74-4C27.81,58.85,17.77,48.71,7.59,38.71c-1.73-1.7-1.46-2.52.09-4.06C17.49,25,27.2,15.2,36.94,5.46a10.9,10.9,0,0,0,1.79-1.95A2.28,2.28,0,0,0,36.67,0Z"/></g></g></svg>