<svg xmlns="http://www.w3.org/2000/svg" viewBox="0 0 39.39 73.72"><defs><style>.cls-1{fill:#fff;}</style></defs><title>but_next</title><g id="Layer_2" data-name="Layer 2"><g id="Layer_1-2" data-name="Layer 1"><path class="cls-1" d="M2.72,0C3.73-.06,4.33.62,5,1.25q16.6,16.59,33.21,33.18c1.56,1.56,1.67,2.91.06,4.51Q21.36,55.68,4.56,72.49C3.36,73.69,2,74.3.74,72.94c-1.47-1.52-.49-2.8.74-4C11.58,58.85,21.62,48.71,31.8,38.71c1.73-1.7,1.46-2.52-.09-4.06C21.9,25,12.19,15.2,2.45,5.46A10.9,10.9,0,0,1,.66,3.51,2.28,2.28,0,0,1,2.72,0Z"/></g></g></svg>