<?xml version="1.0" encoding="utf-8"?>
<!-- Generator: Adobe Illustrator 24.1.2, SVG Export Plug-In . SVG Version: 6.00 Build 0)  -->
<!DOCTYPE svg PUBLIC "-//W3C//DTD SVG 1.1//EN" "http://www.w3.org/Graphics/SVG/1.1/DTD/svg11.dtd" [
	<!ENTITY ns_extend "http://ns.adobe.com/Extensibility/1.0/">
	<!ENTITY ns_ai "http://ns.adobe.com/AdobeIllustrator/10.0/">
	<!ENTITY ns_graphs "http://ns.adobe.com/Graphs/1.0/">
	<!ENTITY ns_vars "http://ns.adobe.com/Variables/1.0/">
	<!ENTITY ns_imrep "http://ns.adobe.com/ImageReplacement/1.0/">
	<!ENTITY ns_sfw "http://ns.adobe.com/SaveForWeb/1.0/">
	<!ENTITY ns_custom "http://ns.adobe.com/GenericCustomNamespace/1.0/">
	<!ENTITY ns_adobe_xpath "http://ns.adobe.com/XPath/1.0/">
]>
<svg version="1.1" id="Layer_1" xmlns:x="&ns_extend;" xmlns:i="&ns_ai;" xmlns:graph="&ns_graphs;"
	 xmlns="http://www.w3.org/2000/svg" xmlns:xlink="http://www.w3.org/1999/xlink" x="0px" y="0px" viewBox="0 0 316.6 137.8"
	 style="enable-background:new 0 0 316.6 137.8;" xml:space="preserve">
<style type="text/css">
	.st0{fill:#FFFFFF;}
	.st1{fill-rule:evenodd;clip-rule:evenodd;fill:#FFFFFF;}
</style>
<metadata>
	<sfw  xmlns="&ns_sfw;">
		<slices></slices>
		<sliceSourceBounds  bottomLeftOrigin="true" height="88.7" width="269.3" x="163" y="-465.3"></sliceSourceBounds>
	</sfw>
</metadata>
<g>
	<path class="st0" d="M68.6,24.6c-24.8,0-44.9,19.8-44.9,44.3c0,18.1,11,33.6,26.7,40.5c0.9-1.1,2.1-2.6,3.4-4.4
		c1.6-2.3,3.1-4.8,3.9-7.2c0.4-0.8,0.5-1.7,0.5-2.6c0-2.7-2.1-4.9-4.4-5.7c-0.2-0.1-0.4-0.1-0.6-0.2C49,88,46,84.1,46,79.5
		c0-0.5,0-1,0.1-1.6c0.7-4.3,7-8.6,7-8.6c-0.1,0.6,0,0.9,0,1.5c0,2.8,1.4,5.1,3.3,6.8c4,3.7,9.5,4.3,10.3,10.3
		c0.9,6.6-4.1,10.7-4.1,10.7L51.6,110c0.5,0.2,1.1,0.4,1.6,0.6c3.7-3,14.1-11.6,16.1-14.1c2.8-2.5,4.5-6.1,4.5-10.2
		c0-5-2.6-9.4-6.6-11.8c-2-1.8-4.4-3.5-5.4-5.4c-2.6-4.8-2-7.1-1.8-8.7c1.1-8.2,13.1-16.6,13.1-16.6c-1.8,2.4-2.6,5.3-2.6,8.6
		c0,4.2,1.9,8.1,4.8,10.7c1.2,1.1,2.5,2,3.8,2.8l0.3,0.2c5.6,3.3,9.3,9.3,9.3,16.3c0,5.6-2.5,10.7-6.3,14.1
		c-3.3,3.1-6.7,4.8-6.7,4.8l-19.1,10.3c3.9,1.1,7.9,1.6,12.1,1.6c24.8,0,44.9-19.9,44.9-44.3C113.5,44.4,93.4,24.6,68.6,24.6z"/>
	<g>
		<g>
			<path class="st1" d="M133.9,113c-1.8,0-3.3-0.2-4.7-0.5c-1.3-0.3-2.6-0.8-3.7-1.3v-5.5h0.5c1.2,1,2.4,1.7,3.8,2.3
				c1.4,0.5,2.7,0.8,4.1,0.8c0.3,0,0.8,0,1.3-0.1c0.5-0.1,1-0.2,1.3-0.3c0.4-0.2,0.7-0.4,1-0.7c0.3-0.3,0.4-0.7,0.4-1.3
				c0-0.6-0.2-1-0.7-1.4c-0.5-0.4-1-0.6-1.6-0.8c-0.8-0.2-1.6-0.4-2.5-0.6c-0.9-0.2-1.7-0.4-2.5-0.7c-1.8-0.6-3.1-1.5-3.8-2.5
				c-0.8-1.1-1.2-2.4-1.2-4c0-2.2,0.9-3.9,2.7-5.2c1.8-1.3,4.1-2,6.8-2c1.4,0,2.7,0.1,4.1,0.4c1.4,0.3,2.6,0.7,3.7,1.1v5.3h-0.5
				c-0.9-0.7-1.9-1.4-3.1-1.9c-1.2-0.5-2.5-0.8-3.8-0.8c-0.5,0-1,0-1.4,0.1c-0.4,0.1-0.8,0.2-1.3,0.4c-0.4,0.2-0.7,0.4-0.9,0.7
				c-0.3,0.3-0.4,0.7-0.4,1.1c0,0.6,0.2,1.1,0.6,1.4c0.4,0.3,1.2,0.7,2.4,0.9c0.8,0.2,1.5,0.3,2.2,0.5c0.7,0.2,1.5,0.4,2.3,0.7
				c1.6,0.6,2.8,1.4,3.6,2.3c0.8,1,1.2,2.3,1.2,3.9c0,2.3-0.9,4.1-2.7,5.5C139.4,112.3,137,113,133.9,113z"/>
			<polygon class="st1" points="149.2,112.5 149.2,89.5 164.8,89.5 164.8,93.9 154.9,93.9 154.9,97.9 164,97.9 164,102.3 
				154.9,102.3 154.9,108.1 164.8,108.1 164.8,112.5 			"/>
			<path class="st1" d="M190.2,111.2c-1,0.4-2.3,0.8-3.9,1.2c-1.6,0.4-3.2,0.6-4.8,0.6c-3.6,0-6.5-1-8.7-3.1
				c-2.1-2.1-3.2-5.1-3.2-8.9c0-3.6,1.1-6.5,3.2-8.7c2.2-2.2,5.1-3.3,8.8-3.3c1.9,0,3.5,0.2,4.7,0.6c1.2,0.4,2.5,0.9,3.7,1.5v5.4
				h-0.5c-0.3-0.2-0.7-0.5-1.2-0.9c-0.5-0.4-1-0.7-1.5-1c-0.6-0.3-1.2-0.6-2-0.9c-0.8-0.2-1.6-0.4-2.4-0.4c-1,0-1.9,0.2-2.7,0.5
				c-0.8,0.3-1.5,0.8-2.2,1.4c-0.6,0.6-1.1,1.4-1.5,2.4c-0.4,0.9-0.5,2.1-0.5,3.3c0,2.7,0.7,4.7,2,6c1.4,1.3,3.2,1.9,5.5,1.9
				c0.2,0,0.4,0,0.7,0c0.3,0,0.5,0,0.7,0v-4.5h-4.5v-4.3h10.1V111.2z"/>
			<path class="st1" d="M206.2,113c-3.1,0-5.5-0.7-7.2-2.2c-1.7-1.5-2.5-3.7-2.5-6.6V89.5h5.8v14.4c0,1.6,0.3,2.8,0.9,3.6
				c0.6,0.8,1.6,1.2,3,1.2c1.3,0,2.3-0.4,2.9-1.1c0.6-0.8,0.9-2,0.9-3.6V89.5h5.8v14.7c0,2.8-0.8,5-2.4,6.6
				C211.8,112.3,209.4,113,206.2,113z"/>
			<path class="st1" d="M243.9,112.5h-7.1l-6.4-8.5h-2.1v8.5h-5.8V89.5h9.3c1.3,0,2.4,0.1,3.3,0.2c0.9,0.2,1.8,0.5,2.6,1
				c0.8,0.5,1.5,1.2,2,2c0.5,0.8,0.7,1.8,0.7,3.1c0,1.8-0.4,3.2-1.2,4.3c-0.8,1.1-1.9,2-3.2,2.6L243.9,112.5z M234.6,96.5
				c0-0.6-0.1-1.1-0.3-1.5c-0.2-0.4-0.6-0.7-1.1-1c-0.4-0.2-0.8-0.2-1.2-0.3c-0.4,0-1-0.1-1.7-0.1h-1.9v6.2h1.7c0.8,0,1.5,0,2-0.1
				c0.6-0.1,1.1-0.3,1.4-0.6c0.4-0.3,0.6-0.6,0.8-1C234.5,97.7,234.6,97.2,234.6,96.5z"/>
			<path class="st1" d="M268.9,101c0,3.7-1,6.7-3,8.8c-2,2.1-4.7,3.2-8.2,3.2c-3.5,0-6.2-1.1-8.2-3.2c-2-2.2-3-5.1-3-8.8
				c0-3.7,1-6.6,3-8.8c2-2.2,4.7-3.2,8.2-3.2c3.5,0,6.2,1.1,8.2,3.2C267.9,94.4,268.9,97.3,268.9,101z M262.9,101
				c0-1.4-0.1-2.5-0.4-3.5c-0.3-1-0.7-1.8-1.1-2.4c-0.5-0.6-1.1-1.1-1.7-1.3c-0.6-0.3-1.3-0.4-1.9-0.4c-0.7,0-1.4,0.1-1.9,0.4
				c-0.6,0.2-1.1,0.7-1.7,1.3c-0.5,0.6-0.9,1.4-1.2,2.4c-0.3,1-0.4,2.2-0.4,3.5c0,1.4,0.1,2.6,0.4,3.5c0.3,0.9,0.7,1.7,1.1,2.3
				c0.5,0.6,1.1,1.1,1.7,1.4c0.6,0.3,1.3,0.4,1.9,0.4c0.7,0,1.3-0.1,2-0.4c0.6-0.3,1.2-0.8,1.7-1.4c0.5-0.7,0.9-1.4,1.1-2.3
				C262.8,103.6,262.9,102.4,262.9,101z"/>
			<path class="st1" d="M281.7,113c-1.8,0-3.3-0.2-4.7-0.5c-1.3-0.3-2.6-0.8-3.7-1.3v-5.5h0.5c1.2,1,2.4,1.7,3.8,2.3
				c1.4,0.5,2.7,0.8,4.1,0.8c0.3,0,0.8,0,1.3-0.1c0.5-0.1,1-0.2,1.3-0.3c0.4-0.2,0.7-0.4,1-0.7c0.3-0.3,0.4-0.7,0.4-1.3
				c0-0.6-0.2-1-0.7-1.4c-0.4-0.4-1-0.6-1.6-0.8c-0.8-0.2-1.6-0.4-2.5-0.6c-0.9-0.2-1.7-0.4-2.5-0.7c-1.8-0.6-3.1-1.5-3.8-2.5
				c-0.8-1.1-1.2-2.4-1.2-4c0-2.2,0.9-3.9,2.7-5.2c1.8-1.3,4.1-2,6.8-2c1.4,0,2.7,0.1,4.1,0.4c1.4,0.3,2.6,0.7,3.7,1.1v5.3h-0.5
				c-0.9-0.7-1.9-1.4-3.1-1.9c-1.2-0.5-2.5-0.8-3.8-0.8c-0.5,0-1,0-1.4,0.1c-0.4,0.1-0.8,0.2-1.3,0.4c-0.4,0.2-0.7,0.4-0.9,0.7
				c-0.3,0.3-0.4,0.7-0.4,1.1c0,0.6,0.2,1.1,0.6,1.4c0.4,0.3,1.2,0.7,2.4,0.9c0.8,0.2,1.5,0.3,2.2,0.5c0.7,0.2,1.5,0.4,2.3,0.7
				c1.6,0.6,2.8,1.4,3.6,2.3c0.8,1,1.2,2.3,1.2,3.9c0,2.3-0.9,4.1-2.7,5.5C287.2,112.3,284.8,113,281.7,113z"/>
		</g>
		<g>
			<path class="st1" d="M133.9,81.2c-1.8,0-3.3-0.2-4.7-0.5c-1.3-0.3-2.6-0.8-3.7-1.3V74h0.5c1.2,1,2.4,1.7,3.8,2.3
				c1.4,0.5,2.7,0.8,4.1,0.8c0.3,0,0.8,0,1.3-0.1c0.5-0.1,1-0.2,1.3-0.3c0.4-0.2,0.7-0.4,1-0.7c0.3-0.3,0.4-0.7,0.4-1.3
				c0-0.6-0.2-1-0.7-1.4c-0.5-0.4-1-0.6-1.6-0.8c-0.8-0.2-1.6-0.4-2.5-0.6c-0.9-0.2-1.7-0.4-2.5-0.7c-1.8-0.6-3.1-1.5-3.8-2.5
				c-0.8-1.1-1.2-2.4-1.2-4c0-2.2,0.9-3.9,2.7-5.2c1.8-1.3,4.1-2,6.8-2c1.4,0,2.7,0.1,4.1,0.4c1.4,0.3,2.6,0.7,3.7,1.1v5.3h-0.5
				c-0.9-0.7-1.9-1.4-3.1-1.9c-1.2-0.5-2.5-0.8-3.8-0.8c-0.5,0-1,0-1.4,0.1c-0.4,0.1-0.8,0.2-1.3,0.4c-0.4,0.2-0.7,0.4-0.9,0.7
				c-0.3,0.3-0.4,0.7-0.4,1.1c0,0.6,0.2,1.1,0.6,1.4c0.4,0.3,1.2,0.7,2.4,0.9c0.8,0.2,1.5,0.3,2.2,0.5c0.7,0.2,1.5,0.4,2.3,0.7
				c1.6,0.6,2.8,1.4,3.6,2.3c0.8,1,1.2,2.3,1.2,3.9c0,2.3-0.9,4.1-2.7,5.5C139.4,80.5,137,81.2,133.9,81.2z"/>
			<path class="st1" d="M151,80.8l7.8-23.1h6.3l7.8,23.1h-6l-1.4-4.7h-7.2l-1.4,4.7H151z M164.3,71.9l-2.4-7.6l-2.4,7.6H164.3z"/>
			<polygon class="st1" points="201.6,80.8 196,80.8 187.1,64.8 187.1,80.8 181.8,80.8 181.8,57.8 188.9,57.8 196.3,71 196.3,57.8 
				201.6,57.8 			"/>
			<path class="st1" d="M222.8,81.3c-3.5,0-6.2-1-8.2-3.1c-2-2.1-3-5-3-8.8c0-3.7,1-6.6,3-8.7c2-2.2,4.8-3.3,8.3-3.3
				c0.9,0,1.7,0,2.5,0.2c0.7,0.1,1.4,0.2,2.1,0.4c0.5,0.2,1.1,0.4,1.7,0.6c0.6,0.3,1.1,0.5,1.5,0.7v5.5H230
				c-0.3-0.2-0.6-0.5-1.1-0.9c-0.4-0.4-0.9-0.7-1.4-1c-0.5-0.3-1.1-0.6-1.8-0.8c-0.6-0.2-1.3-0.4-2-0.4c-0.8,0-1.6,0.1-2.3,0.4
				c-0.7,0.3-1.3,0.7-2,1.4c-0.6,0.6-1.1,1.4-1.4,2.4c-0.4,1-0.5,2.2-0.5,3.5c0,1.4,0.2,2.6,0.6,3.6c0.4,1,0.9,1.8,1.5,2.4
				c0.6,0.6,1.3,1,2,1.3c0.7,0.3,1.5,0.4,2.2,0.4c0.8,0,1.5-0.1,2.2-0.4c0.7-0.3,1.3-0.5,1.7-0.9c0.5-0.3,1-0.6,1.4-1
				c0.4-0.3,0.7-0.6,1-0.9h0.5v5.4c-0.4,0.2-0.9,0.4-1.5,0.7c-0.6,0.2-1.1,0.5-1.7,0.6c-0.7,0.2-1.4,0.4-2,0.5
				C224.8,81.2,223.9,81.3,222.8,81.3z"/>
			<path class="st1" d="M261.6,69.3c0,3.7-1,6.7-3,8.8c-2,2.1-4.7,3.2-8.2,3.2c-3.5,0-6.2-1.1-8.2-3.2c-2-2.2-3-5.1-3-8.8
				c0-3.7,1-6.6,3-8.8c2-2.2,4.7-3.2,8.2-3.2c3.5,0,6.2,1.1,8.2,3.2C260.6,62.7,261.6,65.6,261.6,69.3z M255.6,69.3
				c0-1.4-0.1-2.5-0.4-3.5c-0.3-1-0.7-1.8-1.1-2.4c-0.5-0.6-1.1-1.1-1.7-1.3c-0.6-0.3-1.3-0.4-1.9-0.4c-0.7,0-1.4,0.1-1.9,0.4
				c-0.6,0.2-1.1,0.7-1.7,1.3c-0.5,0.6-0.9,1.4-1.2,2.4c-0.3,1-0.4,2.2-0.4,3.5c0,1.4,0.1,2.6,0.4,3.5c0.3,0.9,0.7,1.7,1.1,2.3
				c0.5,0.6,1.1,1.1,1.7,1.4c0.6,0.3,1.3,0.4,2,0.4c0.7,0,1.3-0.1,2-0.4c0.6-0.3,1.2-0.8,1.7-1.4c0.5-0.7,0.9-1.4,1.1-2.3
				C255.5,71.9,255.6,70.7,255.6,69.3z"/>
			<path class="st1" d="M293,80.8h-7.1l-6.4-8.5h-2.1v8.5h-5.8V57.8h9.3c1.3,0,2.4,0.1,3.3,0.2c0.9,0.2,1.8,0.5,2.6,1
				c0.8,0.5,1.5,1.2,2,2c0.5,0.8,0.7,1.8,0.7,3.1c0,1.8-0.4,3.2-1.2,4.3c-0.8,1.1-1.9,2-3.2,2.6L293,80.8z M283.6,64.8
				c0-0.6-0.1-1.1-0.3-1.5c-0.2-0.4-0.6-0.7-1.1-1c-0.4-0.2-0.8-0.3-1.2-0.3c-0.4,0-1-0.1-1.7-0.1h-1.9v6.2h1.7c0.8,0,1.5,0,2-0.1
				c0.6-0.1,1-0.3,1.4-0.6c0.4-0.3,0.6-0.6,0.8-1C283.6,66,283.6,65.5,283.6,64.8z"/>
		</g>
		<g>
			<path class="st1" d="M146.1,47.8c-1,0.4-2.3,0.8-3.9,1.2c-1.6,0.4-3.2,0.6-4.8,0.6c-3.6,0-6.5-1-8.7-3.1
				c-2.1-2.1-3.2-5.1-3.2-8.9c0-3.6,1.1-6.5,3.2-8.7c2.2-2.2,5.1-3.3,8.8-3.3c1.9,0,3.5,0.2,4.7,0.6c1.2,0.4,2.5,0.9,3.7,1.5v5.4
				h-0.5c-0.3-0.2-0.7-0.5-1.2-0.9c-0.5-0.4-1-0.7-1.5-1c-0.6-0.3-1.2-0.6-2-0.9c-0.8-0.2-1.6-0.4-2.4-0.4c-1,0-1.9,0.2-2.7,0.5
				c-0.8,0.3-1.5,0.8-2.2,1.4c-0.6,0.6-1.1,1.4-1.5,2.4c-0.4,0.9-0.5,2.1-0.5,3.3c0,2.7,0.7,4.7,2,6c1.4,1.3,3.2,1.9,5.5,1.9
				c0.2,0,0.4,0,0.7,0c0.3,0,0.5,0,0.7,0v-4.5H136v-4.3h10.1V47.8z"/>
			<path class="st1" d="M184.9,49.1h-7.1l-6.4-8.5h-2.1v8.5h-5.8V26.1h9.3c1.3,0,2.4,0.1,3.3,0.2c0.9,0.2,1.8,0.5,2.6,1
				c0.8,0.5,1.5,1.2,2,2c0.5,0.8,0.7,1.8,0.7,3.1c0,1.8-0.4,3.2-1.2,4.3c-0.8,1.1-1.9,2-3.2,2.6L184.9,49.1z M175.6,33.1
				c0-0.6-0.1-1.1-0.3-1.5c-0.2-0.4-0.6-0.7-1.1-1c-0.4-0.2-0.8-0.3-1.2-0.3c-0.4,0-1-0.1-1.7-0.1h-1.9v6.2h1.7c0.8,0,1.5,0,2-0.1
				c0.6-0.1,1-0.3,1.4-0.6c0.4-0.3,0.6-0.6,0.8-1C175.5,34.3,175.6,33.8,175.6,33.1z"/>
			<path class="st1" d="M209,49.6c-3.1,0-5.5-0.7-7.2-2.2c-1.7-1.5-2.5-3.7-2.5-6.6V26.1h5.8v14.4c0,1.6,0.3,2.8,0.9,3.6
				c0.6,0.8,1.6,1.2,3,1.2c1.3,0,2.3-0.4,2.9-1.1c0.6-0.8,0.9-2,0.9-3.6V26.1h5.8v14.7c0,2.8-0.8,5-2.4,6.5
				C214.6,48.8,212.2,49.6,209,49.6z"/>
			<path class="st1" d="M254,33.3c0,1.1-0.2,2.1-0.5,3.1c-0.3,1-0.8,1.8-1.5,2.4c-0.4,0.4-0.8,0.8-1.3,1.1c-0.5,0.3-1,0.6-1.5,0.9
				c-0.6,0.2-1.2,0.4-1.9,0.6c-0.7,0.1-1.4,0.2-2.2,0.2h-3v7.5h-5.8V26.1h9c1.3,0,2.5,0.1,3.4,0.4c1,0.2,1.8,0.6,2.6,1.1
				c0.9,0.6,1.5,1.4,2,2.3C253.8,30.9,254,32,254,33.3z M248.1,33.5c0-0.7-0.2-1.2-0.5-1.7c-0.3-0.5-0.7-0.8-1.1-1
				c-0.5-0.2-1.1-0.4-1.6-0.4c-0.5,0-1.2-0.1-2-0.1h-0.8v6.9h0.4c0.5,0,1.1,0,1.5,0c0.5,0,0.9,0,1.3-0.1c0.3-0.1,0.6-0.1,1-0.3
				c0.4-0.2,0.6-0.3,0.8-0.5c0.4-0.4,0.7-0.8,0.8-1.2C248,34.7,248.1,34.2,248.1,33.5z"/>
			<path class="st1" d="M291.2,37.6c0,3.7-1,6.7-3,8.8c-2,2.1-4.7,3.2-8.2,3.2c-3.5,0-6.2-1.1-8.2-3.2c-2-2.2-3-5.1-3-8.8
				c0-3.7,1-6.6,3-8.8c2-2.2,4.7-3.2,8.2-3.2c3.5,0,6.2,1.1,8.2,3.2C290.3,30.9,291.2,33.9,291.2,37.6z M285.3,37.6
				c0-1.4-0.1-2.5-0.4-3.5c-0.3-1-0.7-1.8-1.1-2.4c-0.5-0.6-1.1-1.1-1.7-1.3c-0.6-0.3-1.3-0.4-1.9-0.4c-0.7,0-1.4,0.1-1.9,0.4
				c-0.6,0.2-1.1,0.7-1.7,1.3c-0.5,0.6-0.9,1.4-1.2,2.4c-0.3,1-0.4,2.2-0.4,3.5c0,1.4,0.1,2.6,0.4,3.5c0.3,0.9,0.7,1.7,1.1,2.3
				c0.5,0.6,1.1,1.1,1.7,1.4c0.6,0.3,1.3,0.4,2,0.4c0.7,0,1.3-0.1,2-0.4c0.6-0.3,1.2-0.8,1.7-1.4c0.5-0.7,0.9-1.4,1.1-2.3
				C285.1,40.2,285.3,39,285.3,37.6z"/>
		</g>
	</g>
</g>
</svg>
