<svg xmlns="http://www.w3.org/2000/svg" viewBox="0 0 194.63 40.76"><defs><style>.cls-1{fill:#d91d25;}.cls-2{fill:#da2129;}</style></defs><title>LogoP</title><g id="Layer_2" data-name="Layer 2"><g id="Layer_1-2" data-name="Layer 1"><g id="_8T9a5H" data-name="8T9a5H"><path class="cls-1" d="M20.44,19.21c0-3.25,0-6.5,0-9.75C20.35,3.15,24.12-.22,29.81,0a11.8,11.8,0,0,1,5.53,1.17A7.51,7.51,0,0,1,39.21,8q.18,10.27,0,20.54a9.09,9.09,0,0,1-9,9.18,14.15,14.15,0,0,1-2.93.2c-5-.75-6.61-4.1-6.81-8-.18-3.53,0-7.08,0-10.62Zm6.28-.34c0,3.3,0,6.61,0,9.91,0,2.77,2.31,4.17,4.59,2.88A3.49,3.49,0,0,0,33,28.41Q33,18.5,33,8.59a2.87,2.87,0,0,0-1.85-3C28.7,4.7,26.78,6,26.73,8.79,26.67,12.15,26.71,15.51,26.72,18.87Z"/><path class="cls-1" d="M43.2.32c4.25.21,8.43-.39,12.56.31,3.52.6,5.34,2.5,5.73,6a26.65,26.65,0,0,1,0,5.74,6.52,6.52,0,0,1-3.68,5.38c3.44,1.73,3.81,4.73,3.8,8s-.42,6.25.7,9.46a45.25,45.25,0,0,0-6.31.37,6.78,6.78,0,0,1-.7-3.46c0-2,0-4.07,0-6.1,0-4.36-1.36-5.51-5.89-4.88V35.82l-6.21.52Zm6.25,15.4c.85,0,1.6,0,2.34,0,2.37-.19,3.41-1.27,3.5-3.65,0-1,0-2,0-3,0-2.77-1-3.77-3.75-3.8a4.16,4.16,0,0,0-2.1.2Z"/><path class="cls-1" d="M183,23.67l-5,15.08-6-.65c2.16-6.1,4.23-12,6.35-17.91a4.09,4.09,0,0,0,0-3C176.54,12.1,174.8,7,173,1.87a2.42,2.42,0,0,1-.28-1.41h6.33l4.51,13.7L188.18.45h5.92l-6.35,18.65,6.88,21.64-6.72-.82Z"/><path class="cls-1" d="M6.18,24.82V39.94L0,40.76V.43C3.81.43,7.64.17,11.42.5S17.41,3.22,18,7a27,27,0,0,1-.33,11.54,8.25,8.25,0,0,1-7.59,5.88C8.81,24.51,7.56,24.68,6.18,24.82Zm0-6c.87,0,1.67,0,2.46,0,2-.11,2.72-.8,3.15-2.76A22.93,22.93,0,0,0,12,11.25c0-5-.54-5.49-5.49-5.26-.1,0-.19.11-.31.18Z"/><path class="cls-1" d="M87.73.39H97l6.23,33.84H97c-.84-1.89-.53-4.13-1.37-6.08h-7c-.86,2.05-.59,4.28-1.45,6.29H81.49Zm7.16,22.78L92.14,7,92,7l-2.7,16.16Z"/><path class="cls-2" d="M131.21,5.25V15.39l7.65.38v4.91H131.2V34.92h-6.43V.44h16.36V5.25Z"/><path class="cls-2" d="M150.34.46V30.74l10,.75V37l-16.38-1.21V.46Z"/><path class="cls-2" d="M70.05,5.26H63.76V.45H82.71a26.74,26.74,0,0,1,.06,4.73H76.54V34.53l-6.49.39Z"/><path class="cls-1" d="M112,29.28c3.49.12,6.73,0,10.06.36v4.88H105.91V.45H112Z"/><path class="cls-1" d="M169.19.5V37.6c-2.05.38-4-.39-6.16-.27V.5Z"/></g></g></g></svg>