<svg xmlns="http://www.w3.org/2000/svg" viewBox="0 0 158.32 38.32"><defs><style>.cls-1{fill:#fff;fill-rule:evenodd;}</style></defs><title>LogoS</title><g id="Layer_2" data-name="Layer 2"><g id="Layer_1-2" data-name="Layer 1"><path class="cls-1" d="M18.75.35A18.82,18.82,0,0,1,37.22,15.91h-13l-2.34-5.18-3-7.07-3,7.07-3,7.07H37.45c0,.45.05.9.05,1.36A18.75,18.75,0,0,1,.31,22.55l12.84,0,2.62,5.09,3,6.5,3-6.5,3-6.5H.11A18.81,18.81,0,0,1,18.75.35"/><path class="cls-1" d="M54.1,16.53a13,13,0,0,1-3.21-.35,16.11,16.11,0,0,1-2.57-.88V11.52h.37a9,9,0,0,0,2.64,1.56,8,8,0,0,0,2.8.54,7.81,7.81,0,0,0,.9-.07,3.22,3.22,0,0,0,.9-.24,1.94,1.94,0,0,0,.71-.51,1.24,1.24,0,0,0,.29-.86,1.18,1.18,0,0,0-.47-1,3,3,0,0,0-1.12-.55c-.54-.14-1.12-.28-1.74-.4a13.66,13.66,0,0,1-1.73-.47A5.38,5.38,0,0,1,49.22,7.8,4.55,4.55,0,0,1,48.41,5a4.29,4.29,0,0,1,1.89-3.62A7.77,7.77,0,0,1,55,0a14,14,0,0,1,2.83.29,12.46,12.46,0,0,1,2.52.78V4.74H60a7.8,7.8,0,0,0-2.16-1.28,6.84,6.84,0,0,0-2.63-.53,5.7,5.7,0,0,0-.94.07,3.67,3.67,0,0,0-.88.29,1.75,1.75,0,0,0-.64.51,1.15,1.15,0,0,0-.27.75,1.19,1.19,0,0,0,.43,1,4.3,4.3,0,0,0,1.67.64l1.55.35A13.65,13.65,0,0,1,57.73,7,5.4,5.4,0,0,1,60.2,8.61,4.14,4.14,0,0,1,61,11.27a4.59,4.59,0,0,1-1.86,3.81,8.06,8.06,0,0,1-5,1.44m11.56-.29L71,.33h4.36l5.38,15.91H76.66l-1-3.25h-5l-1,3.25Zm9.12-6.13L73.16,4.86,71.54,10.1Zm25.31,6.13H96.25L90.12,5.15V16.24H86.46V.33h4.91l5.07,9.11V.33h3.65Zm12.89.31a7.58,7.58,0,0,1-5.68-2.16,8.37,8.37,0,0,1-2.1-6.09,8.45,8.45,0,0,1,2.11-6A7.43,7.43,0,0,1,113,0a12.8,12.8,0,0,1,1.71.11,11.84,11.84,0,0,1,1.45.3,11.42,11.42,0,0,1,1.19.44c.43.19.77.35,1,.48V5.14H118l-.73-.61a8.65,8.65,0,0,0-1-.7A6.56,6.56,0,0,0,115,3.24,4.09,4.09,0,0,0,113.63,3a4.47,4.47,0,0,0-1.59.27,3.8,3.8,0,0,0-1.37.94,4.53,4.53,0,0,0-1,1.64,7.13,7.13,0,0,0-.38,2.45,6.92,6.92,0,0,0,.39,2.5,4.5,4.5,0,0,0,1,1.63,3.73,3.73,0,0,0,1.38.87,4.58,4.58,0,0,0,1.52.27,4.33,4.33,0,0,0,1.51-.26,6.09,6.09,0,0,0,1.21-.58,8.52,8.52,0,0,0,.94-.67l.7-.61h.36v3.74l-1,.47a9.57,9.57,0,0,1-1.19.44,12.76,12.76,0,0,1-1.4.34,10.86,10.86,0,0,1-1.79.12m25.69-8.26a8.56,8.56,0,0,1-2.06,6.07A7.36,7.36,0,0,1,131,16.57a7.28,7.28,0,0,1-5.65-2.24,8.59,8.59,0,0,1-2.05-6,8.6,8.6,0,0,1,2.05-6.06,8.3,8.3,0,0,1,11.3,0,8.56,8.56,0,0,1,2.06,6.07m-4.12,0a8.66,8.66,0,0,0-.3-2.42,4.91,4.91,0,0,0-.79-1.64,3,3,0,0,0-1.16-.93,3.41,3.41,0,0,0-2.68,0,3.19,3.19,0,0,0-1.15.93,4.78,4.78,0,0,0-.79,1.64,8.61,8.61,0,0,0-.31,2.45,8.61,8.61,0,0,0,.29,2.43,4.9,4.9,0,0,0,.79,1.62,3,3,0,0,0,1.16.94,3.37,3.37,0,0,0,1.35.28,3.25,3.25,0,0,0,1.37-.31,3,3,0,0,0,1.14-.94,5.27,5.27,0,0,0,.79-1.62,8.6,8.6,0,0,0,.28-2.42m23.78,8h-4.87L149,10.4h-1.44v5.83h-4V.33H150a14,14,0,0,1,2.3.17,5,5,0,0,1,1.82.69,4.09,4.09,0,0,1,1.36,1.39A4.08,4.08,0,0,1,156,4.7a5,5,0,0,1-.82,3A5.8,5.8,0,0,1,153,9.47Zm-6.43-11a2.19,2.19,0,0,0-.23-1,1.53,1.53,0,0,0-.76-.67,2.84,2.84,0,0,0-.83-.2c-.31,0-.69,0-1.14,0h-1.34V7.54h1.14a8.19,8.19,0,0,0,1.42-.1,2.08,2.08,0,0,0,1-.43,1.86,1.86,0,0,0,.57-.72,2.67,2.67,0,0,0,.19-1.09"/><path class="cls-1" d="M54.1,38.27a13,13,0,0,1-3.21-.35A16,16,0,0,1,48.32,37V33.26h.37a9,9,0,0,0,2.64,1.56,8,8,0,0,0,2.8.54,7.67,7.67,0,0,0,.9-.07,3.17,3.17,0,0,0,.9-.24,1.93,1.93,0,0,0,.71-.51,1.25,1.25,0,0,0,.29-.86,1.18,1.18,0,0,0-.47-1,3,3,0,0,0-1.12-.55c-.54-.14-1.12-.28-1.74-.41a13.66,13.66,0,0,1-1.73-.47,5.36,5.36,0,0,1-2.65-1.75,4.55,4.55,0,0,1-.8-2.76,4.29,4.29,0,0,1,1.89-3.62A7.77,7.77,0,0,1,55,21.79a14,14,0,0,1,2.83.29,12.41,12.41,0,0,1,2.52.78v3.63H60a7.83,7.83,0,0,0-2.16-1.28,6.86,6.86,0,0,0-2.63-.53,5.63,5.63,0,0,0-.94.07,3.7,3.7,0,0,0-.88.29,1.75,1.75,0,0,0-.64.51,1.15,1.15,0,0,0-.27.75,1.19,1.19,0,0,0,.43,1,4.28,4.28,0,0,0,1.67.64l1.55.35a14,14,0,0,1,1.59.47,5.41,5.41,0,0,1,2.46,1.61A4.15,4.15,0,0,1,61,33a4.59,4.59,0,0,1-1.86,3.82,8.06,8.06,0,0,1-5,1.44M63.81,38V22.08H74.57v3H67.79V27.9H74v3H67.79v4h6.78v3Zm27.52-.91a19.94,19.94,0,0,1-2.72.83,14,14,0,0,1-3.3.41,8.22,8.22,0,0,1-6-2.16A8.17,8.17,0,0,1,77.12,30a7.73,7.73,0,0,1,8.32-8.25,11.53,11.53,0,0,1,3.25.38,17.45,17.45,0,0,1,2.59,1v3.73h-.36l-.83-.63a8.23,8.23,0,0,0-1-.7A6.92,6.92,0,0,0,87.64,25,5.48,5.48,0,0,0,86,24.74a5.2,5.2,0,0,0-1.87.32,4.24,4.24,0,0,0-1.51,1,4.59,4.59,0,0,0-1,1.63A6.5,6.5,0,0,0,81.24,30a5.42,5.42,0,0,0,1.4,4.11,5.34,5.34,0,0,0,3.83,1.32H87l.5,0V32.23H84.38v-3h7Zm10.22,1.24a7.14,7.14,0,0,1-4.93-1.55,5.77,5.77,0,0,1-1.73-4.53V22.08h4V32a4,4,0,0,0,.62,2.47,2.4,2.4,0,0,0,2,.81,2.48,2.48,0,0,0,2-.78,3.9,3.9,0,0,0,.64-2.5V22.08h4V32.23a5.89,5.89,0,0,1-1.68,4.51,7.05,7.05,0,0,1-5,1.58M126.77,38H121.9l-4.43-5.83H116V38h-4V22.08h6.4a14.11,14.11,0,0,1,2.3.16,5,5,0,0,1,1.82.69,3.85,3.85,0,0,1,1.86,3.51,5,5,0,0,1-.82,3,5.81,5.81,0,0,1-2.2,1.81Zm-6.43-11a2.18,2.18,0,0,0-.23-1,1.52,1.52,0,0,0-.76-.67,2.84,2.84,0,0,0-.84-.2c-.31,0-.68,0-1.14,0H116v4.28h1.14a8.17,8.17,0,0,0,1.41-.1,2.08,2.08,0,0,0,1-.43,1.88,1.88,0,0,0,.57-.72,2.68,2.68,0,0,0,.19-1.09M143.21,30a8.56,8.56,0,0,1-2.06,6.07,7.36,7.36,0,0,1-5.65,2.21,7.28,7.28,0,0,1-5.65-2.24,8.59,8.59,0,0,1-2.05-6A8.6,8.6,0,0,1,129.84,24a8.3,8.3,0,0,1,11.3,0A8.56,8.56,0,0,1,143.21,30m-4.12,0a8.65,8.65,0,0,0-.29-2.42A4.89,4.89,0,0,0,138,26a3,3,0,0,0-1.16-.93,3.41,3.41,0,0,0-2.68,0,3.2,3.2,0,0,0-1.15.93,4.82,4.82,0,0,0-.79,1.64,8.64,8.64,0,0,0-.31,2.45,8.6,8.6,0,0,0,.29,2.43,4.9,4.9,0,0,0,.79,1.62,3,3,0,0,0,1.16.94,3.36,3.36,0,0,0,1.35.28,3.25,3.25,0,0,0,1.37-.31,3,3,0,0,0,1.14-.94,5.31,5.31,0,0,0,.79-1.62,8.64,8.64,0,0,0,.28-2.42m12.17,8.24a13,13,0,0,1-3.21-.35,16,16,0,0,1-2.57-.88V33.26h.37a9,9,0,0,0,2.64,1.56,8,8,0,0,0,2.8.54,7.67,7.67,0,0,0,.9-.07,3.17,3.17,0,0,0,.9-.24,1.93,1.93,0,0,0,.71-.51,1.24,1.24,0,0,0,.29-.86,1.18,1.18,0,0,0-.47-1,3,3,0,0,0-1.12-.55c-.54-.14-1.12-.28-1.74-.41A13.62,13.62,0,0,1,149,31.3a5.36,5.36,0,0,1-2.65-1.75,4.54,4.54,0,0,1-.8-2.76,4.29,4.29,0,0,1,1.89-3.62,7.77,7.77,0,0,1,4.72-1.38,14,14,0,0,1,2.83.29,12.42,12.42,0,0,1,2.52.78v3.63h-.35A7.84,7.84,0,0,0,155,25.21a6.86,6.86,0,0,0-2.63-.53,5.63,5.63,0,0,0-.94.07,3.69,3.69,0,0,0-.88.29,1.75,1.75,0,0,0-.65.51,1.16,1.16,0,0,0-.27.75,1.19,1.19,0,0,0,.43,1,4.27,4.27,0,0,0,1.67.64l1.55.35a14,14,0,0,1,1.59.47,5.41,5.41,0,0,1,2.46,1.61,4.15,4.15,0,0,1,.81,2.67,4.59,4.59,0,0,1-1.86,3.82,8.06,8.06,0,0,1-5,1.44"/></g></g></svg>